<?xml version="1.0" encoding="utf-8"?>
<!-- Generator: Adobe Illustrator 13.0.0, SVG Export Plug-In  -->
<!DOCTYPE svg PUBLIC "-//W3C//DTD SVG 1.1//EN" "http://www.w3.org/Graphics/SVG/1.1/DTD/svg11.dtd" [
	<!ENTITY ns_flows "http://ns.adobe.com/Flows/1.0/">
]>
<svg version="1.1"
	 xmlns="http://www.w3.org/2000/svg" xmlns:xlink="http://www.w3.org/1999/xlink" xmlns:a="http://ns.adobe.com/AdobeSVGViewerExtensions/3.0/"
	 x="0px" y="0px" width="640px" height="200px" viewBox="-15 0 640 200" enable-background="new -15 0 640 200"
	 xml:space="preserve">
<defs>
</defs>
<g>
	<defs>
		<path id="SVGID_2_" d="M0,0v135.685c1.055-3.911,2.259-7.917,3.589-11.983c2.97-9.063,6.663-18.325,10.979-27.497
			c4.314-9.169,9.34-18.262,14.923-27.048c5.628-8.83,11.97-17.165,18.834-24.757c6.898-7.638,14.491-14.535,22.58-20.538
			c8.181-6.045,17.072-10.87,26.443-14.349c5.599-2.041,10.516-3.34,14.629-3.88c2.01-0.266,3.913-0.387,5.675-0.387
			c1.917,0,3.728,0.155,5.351,0.479c3.248,0.634,5.984,1.778,8.103,3.37c2.042,1.547,3.68,3.341,4.888,5.321
			c0.355,0.588,0.679,1.175,0.973,1.763V0H0z"/>
	</defs>
	<clipPath id="SVGID_3_">
		<use xlink:href="#SVGID_2_"  overflow="visible"/>
	</clipPath>
	
		<linearGradient id="SVGID_4_" gradientUnits="userSpaceOnUse" x1="-195.0166" y1="599.9941" x2="-194.0098" y2="599.9941" gradientTransform="matrix(136.0762 0 0 -136.0762 26537.0664 81712.6953)">
		<stop  offset="0" style="stop-color:#44C8FF"/>
		<stop  offset="0.1039" style="stop-color:#36B9FF"/>
		<stop  offset="0.3545" style="stop-color:#189BFF"/>
		<stop  offset="0.5689" style="stop-color:#0689FF"/>
		<stop  offset="0.7204" style="stop-color:#0082FF"/>
		<stop  offset="1" style="stop-color:#0082FF"/>
	</linearGradient>
	<rect clip-path="url(#SVGID_3_)" fill="url(#SVGID_4_)" width="136.968" height="135.685"/>
</g>
<g>
	<defs>
		<path id="SVGID_1_" d="M111.298,27.219c-1.546,0.324-3.171,0.802-4.825,1.422c-7.995,2.938-15.572,7.022-22.532,12.109
			c-7.068,5.178-13.67,11.164-19.655,17.797c-6.032,6.713-11.613,14.073-16.577,21.867c-4.997,7.855-9.465,15.946-13.3,24.079
			c-3.82,8.134-7.113,16.347-9.79,24.387c-2.675,8.041-4.777,15.727-6.247,22.856c-1.468,7.051-2.352,13.577-2.614,19.39
			c-0.247,5.586,0.077,10.223,0.99,13.78c0.263,0.883,0.773,2.135,1.5,3.696c0.603,1.316,1.515,2.552,2.706,3.697
			c1.129,1.066,2.613,1.915,4.422,2.521c0.744,0.263,1.595,0.386,2.537,0.386c1.129,0,2.398-0.187,3.82-0.542
			c4.005-0.974,8.104-2.859,12.202-5.613c4.266-2.859,8.551-6.34,12.741-10.346c4.207-4.035,8.368-8.522,12.341-13.347
			c3.99-4.839,7.856-9.848,11.459-14.873c3.603-4.998,6.991-9.947,10.053-14.692c3.139-4.842,5.875-9.172,8.181-12.882
			c2.289-3.697,4.205-6.852,5.707-9.388c2.242-3.805,3.044-4.732,3.586-5.258c1.655-1.609,3.325-1.948,4.423-1.948
			c1.021,0,1.98,0.262,2.891,0.804c1.826,1.053,3.032,2.909,3.604,5.52c0.449,1.997,0.417,4.376-0.046,7.284
			c-0.463,2.724-1.5,5.785-3.108,9.11c-0.015,0.045-0.046,0.106-0.077,0.154l-0.341,0.634l-1.963,3.586
			c-1.314,2.43-3.046,5.413-5.321,9.14c-2.226,3.665-4.87,7.827-7.856,12.372c-3.03,4.609-6.417,9.387-10.082,14.228
			c-3.65,4.824-7.639,9.697-11.893,14.49c-4.282,4.824-8.798,9.323-13.438,13.392c-2.104,1.842-4.238,3.571-6.401,5.182h78.572
			V41.663c-0.849,2.302-1.854,4.669-3.016,7.083c-2.133,4.421-4.715,8.936-7.7,13.407c-2.938,4.422-6.017,8.644-9.154,12.511
			c-3.202,3.942-6.419,7.422-9.574,10.375c-3.324,3.108-6.263,5.335-9.032,6.851c-4.499,2.381-7.902,3.512-10.716,3.541h-0.17
			c-3.341,0-5.784-1.019-7.314-3.044c-1.516-1.996-1.902-4.531-1.098-7.099c0.695-2.29,2.15-4.16,4.19-5.381
			c0-0.015,0-0.015,0.017-0.015c0.124-0.092,0.588-0.464,1.747-1.562c1.252-1.16,2.798-2.706,4.592-4.563
			c1.872-1.948,3.942-4.175,6.155-6.604c2.227-2.442,4.469-5.087,6.65-7.871c2.163-2.769,4.282-5.691,6.276-8.675
			c1.949-2.923,3.619-5.83,4.979-8.628c1.316-2.691,2.291-5.321,2.893-7.825c0.525-2.166,0.605-4.082,0.248-5.662
			c-0.077-0.277-0.232-0.788-0.494-0.973c-0.417-0.308-0.976-0.494-1.669-0.573c-0.264-0.032-0.542-0.045-0.821-0.045
			C113.169,26.91,112.272,27.017,111.298,27.219"/>
	</defs>
	<clipPath id="SVGID_5_">
		<use xlink:href="#SVGID_1_"  overflow="visible"/>
	</clipPath>
	
		<linearGradient id="SVGID_6_" gradientUnits="userSpaceOnUse" x1="-195.0186" y1="599.9912" x2="-194.0122" y2="599.9912" gradientTransform="matrix(120.5 0 0 -120.5 23515.3125 72413.375)">
		<stop  offset="0" style="stop-color:#44C8FF"/>
		<stop  offset="0.1039" style="stop-color:#36B9FF"/>
		<stop  offset="0.3545" style="stop-color:#189BFF"/>
		<stop  offset="0.5689" style="stop-color:#0689FF"/>
		<stop  offset="0.7204" style="stop-color:#0082FF"/>
		<stop  offset="1" style="stop-color:#0082FF"/>
	</linearGradient>
	<rect x="15.512" y="26.91" clip-path="url(#SVGID_5_)" fill="url(#SVGID_6_)" width="121.456" height="175.303"/>
</g>
<path fill="#394049" d="M201.152,117.533c-2.476,3.334-6.369,5.002-11.678,5.002c-5.308,0-9.277-1.775-11.904-5.327
	c-2.627-3.555-3.938-8.666-3.938-15.337V70.552c0-10.699,2.802-17.382,8.412-20.048c2.068-0.982,4.573-1.473,7.513-1.473
	c10.099,0,15.149,6.37,15.149,19.111v9.882h-10.575v-9.188c0-3.703-0.314-6.35-0.939-7.944c-0.628-1.592-1.851-2.386-3.676-2.386
	c-1.824,0-3.089,0.844-3.796,2.53c-0.71,1.69-1.064,4.275-1.064,7.76v33.565c0,3.865,0.341,6.631,1.022,8.291
	c0.678,1.658,1.919,2.491,3.715,2.491c1.797,0,3.034-0.844,3.716-2.533c0.68-1.688,1.021-4.479,1.021-8.371V91.949h10.739v10.167
	C204.869,109.061,203.63,114.197,201.152,117.533"/>
<path fill="#394049" d="M235.087,59.731c0.108,0,0.163,2.286,0.163,6.858l-0.04,2.29c-2.178,0-4.315,0.367-6.412,1.104
	c-2.096,0.733-3.469,1.78-4.124,3.141v48.596h-10.901V60.466h10.901v6.82c0.708-2.396,1.953-4.255,3.737-5.574
	C230.193,60.392,232.419,59.731,235.087,59.731"/>
<path fill="#394049" d="M255.996,122.454c-6.889,0-11.327-2.627-13.313-7.882c-1.253-3.348-1.879-7.757-1.879-13.231V78.514
	c0-12.521,5.214-18.783,15.639-18.783c5.556,0,9.399,1.648,11.539,4.941c2.136,3.292,3.205,7.977,3.205,14.047v13.107h-19.478
	v12.045c0,4.248,0.365,6.951,1.101,8.108c0.735,1.154,1.837,1.734,3.308,1.734s2.423-0.34,2.861-1.021
	c0.733-1.197,1.156-2.424,1.265-3.676c0.105-1.25,0.163-2.965,0.163-5.146v-5.389h10.698v3.265c0,5.557-0.438,9.543-1.308,11.967
	c-0.87,2.423-1.878,4.181-3.019,5.27C264.381,121.297,260.787,122.454,255.996,122.454 M251.665,85.497h8.741v-7.838
	c0-3.348-0.266-5.752-0.797-7.209c-0.532-1.456-1.612-2.187-3.247-2.187h-0.04c-2.833,0-4.355,2.165-4.573,6.495
	c-0.057,0.818-0.084,1.877-0.084,3.185V85.497z"/>
<path fill="#394049" d="M291.193,122.33c-3.292,0-5.758-0.924-7.392-2.775c-1.632-1.854-2.688-4.197-3.163-7.044
	c-0.477-2.846-0.715-6.296-0.715-10.352v-24.95c0-5.12,0.939-9.312,2.818-12.579c1.878-3.266,4.98-4.899,9.312-4.899
	c1.685,0,3.232,0.408,4.633,1.225c1.4,0.818,2.498,1.919,3.286,3.308V49.237h10.822v72.481h-10.822v-5.674
	C298.341,120.236,295.416,122.33,291.193,122.33 M291.788,111.203c0.638,1.672,1.836,2.512,3.591,2.512
	c1.758,0,2.97-0.84,3.638-2.512c0.664-1.675,0.999-4.472,0.999-8.393V78.31c0-5.037-0.761-8.084-2.287-9.147
	c-0.652-0.434-1.443-0.653-2.367-0.653c-1.826,0-3.039,0.832-3.637,2.493c-0.598,1.659-0.898,4.138-0.898,7.43v25.197
	C290.827,107.006,291.148,109.528,291.788,111.203"/>
<path fill="#394049" d="M321.617,45.437h10.9v9.392h-10.9V45.437z M321.738,60.466h10.823v61.253h-10.823V60.466z"/>
<path fill="#394049" d="M354.53,122.128c-3.812,0-6.37-0.73-7.678-2.185c-1.306-1.458-1.959-3.983-1.959-7.577V69.572h-4.981v-7.841
	h4.981V49.808h10.821v11.923h5.963v7.841h-5.963v40.917c0,1.444,0.374,2.368,1.122,2.777c0.746,0.409,2.432,0.614,5.045,0.614v8.248
	H354.53z"/>
<path fill="#394049" d="M379.928,122.33c-4.001,0-6.861-1.435-8.574-4.308c-1.715-2.871-2.601-7.003-2.654-12.394v-3.918
	c0-5.228,1.416-9.189,4.245-11.886c1.825-1.77,4.915-3.484,9.271-5.143c0.79-0.299,1.884-0.709,3.286-1.227
	c1.402-0.516,2.391-0.881,2.963-1.103v-5.348c0-3.322-0.239-5.575-0.718-6.76c-0.477-1.183-1.564-1.775-3.268-1.775
	c-1.7,0-2.835,0.626-3.411,1.878c-0.568,1.251-0.854,3.363-0.854,6.33v2.737h-10.701v-1.839c0-5.799,1.084-10.221,3.247-13.273
	c2.167-3.046,6.001-4.571,11.518-4.571c5.511,0,9.433,1.525,11.757,4.571c2.33,3.052,3.495,7.626,3.495,13.722v43.694h-10.904
	v-6.084c-0.547,1.879-1.588,3.463-3.124,4.755C383.963,121.684,382.107,122.33,379.928,122.33 M388.465,88.479
	c-3.432,1.524-5.747,2.969-6.944,4.33c-1.2,1.36-1.799,3.472-1.799,6.329v6.574c0,2.856,0.3,4.908,0.901,6.146
	c0.598,1.242,1.571,1.858,2.92,1.858c1.348,0,2.446-0.456,3.307-1.371c0.858-0.908,1.393-1.937,1.615-3.079V88.479z"/>
<path fill="#394049" d="M450.043,121.719V74.677c0-4.057-1.374-6.085-4.127-6.085c-1.657,0-2.938,0.571-3.837,1.714
	c-0.898,1.147-1.349,2.792-1.349,4.942v46.471h-10.821V74.595c0-4.001-1.33-6.003-4-6.003c-1.771,0-3.099,0.674-3.985,2.023
	c-0.882,1.347-1.324,3.08-1.324,5.204v45.9h-10.821V60.466H420.6v6.655c0.626-2.287,1.756-4.091,3.39-5.41s3.769-1.98,6.412-1.98
	c4.52,0,7.541,2.054,9.064,6.166c2.206-4.111,5.675-6.166,10.415-6.166c3.835,0,6.619,1.279,8.351,3.838
	c1.728,2.559,2.591,6.304,2.591,11.229v46.92H450.043z"/>
<path fill="#394049" d="M485.526,122.454c-6.884,0-11.323-2.627-13.312-7.882c-1.252-3.348-1.875-7.757-1.875-13.231V78.514
	c0-12.521,5.212-18.783,15.637-18.783c5.554,0,9.399,1.648,11.537,4.941c2.135,3.292,3.206,7.977,3.206,14.047v13.107H481.24v12.045
	c0,4.248,0.369,6.951,1.103,8.108c0.736,1.154,1.837,1.734,3.312,1.734c1.467,0,2.417-0.34,2.856-1.021
	c0.733-1.197,1.156-2.424,1.265-3.676c0.107-1.25,0.163-2.965,0.163-5.146v-5.389h10.699v3.265c0,5.557-0.435,9.543-1.306,11.967
	c-0.872,2.423-1.879,4.181-3.021,5.27C493.914,121.297,490.32,122.454,485.526,122.454 M481.201,85.497h8.737v-7.838
	c0-3.348-0.266-5.752-0.796-7.209c-0.532-1.456-1.613-2.187-3.245-2.187h-0.041c-2.831,0-4.354,2.165-4.573,6.495
	c-0.057,0.818-0.082,1.877-0.082,3.185V85.497z"/>
<path fill="#394049" d="M531.02,59.731c7.076,0,10.617,4.587,10.617,13.762v48.226h-10.823V74.144c0-1.768-0.403-3.156-1.205-4.162
	c-0.803-1.01-1.965-1.512-3.491-1.512c-1.525,0-2.729,0.654-3.612,1.958c-0.889,1.308-1.329,3.065-1.329,5.268v46.022h-10.818
	V60.466h10.818v7.022c0.548-2.177,1.716-4.013,3.514-5.511C526.484,60.479,528.594,59.731,531.02,59.731"/>
<path fill="#394049" d="M563.158,122.128c-3.813,0-6.372-0.73-7.678-2.185c-1.307-1.458-1.963-3.983-1.963-7.577V69.572h-4.98
	v-7.841h4.98V49.808h10.822v11.923h5.963v7.841h-5.963v40.917c0,1.444,0.374,2.368,1.127,2.777c0.746,0.409,2.427,0.614,5.04,0.614
	v8.248H563.158z"/>
<path fill="#394049" d="M592.638,122.454c-6.888,0-11.323-2.627-13.312-7.882c-1.249-3.348-1.878-7.757-1.878-13.231V78.514
	c0-12.521,5.213-18.783,15.639-18.783c5.556,0,9.401,1.648,11.536,4.941c2.137,3.292,3.207,7.977,3.207,14.047v13.107h-19.479
	v12.045c0,4.248,0.368,6.951,1.104,8.108c0.731,1.154,1.837,1.734,3.307,1.734c1.472,0,2.421-0.34,2.858-1.021
	c0.732-1.197,1.155-2.424,1.264-3.676c0.109-1.25,0.167-2.965,0.167-5.146v-5.389h10.697v3.265c0,5.557-0.433,9.543-1.307,11.967
	c-0.874,2.423-1.881,4.181-3.021,5.27C601.022,121.297,597.432,122.454,592.638,122.454 M588.311,85.497h8.74v-7.838
	c0-3.348-0.267-5.752-0.798-7.209c-0.532-1.456-1.613-2.187-3.246-2.187h-0.043c-2.83,0-4.355,2.165-4.573,6.495
	c-0.055,0.818-0.08,1.877-0.08,3.185V85.497z"/>
<path fill="#0082FF" d="M192.461,156.065c-0.017,1.277-0.339,2.36-0.978,3.225c-0.601,0.82-1.491,1.224-2.712,1.224h-10.872
	c-1.263,0-2.293-0.422-3.166-1.283c-0.864-0.866-1.277-1.896-1.262-3.165l-0.006-1.366h4.821l-0.007,0.681
	c0.024,0.599,0.42,0.974,1.007,0.974h7.338c0.377,0,0.6-0.147,0.727-0.28c0.12-0.131,0.269-0.361,0.256-0.716v-2.434
	c0.012-0.374-0.137-0.603-0.256-0.731c-0.127-0.126-0.35-0.284-0.727-0.284h-8.717c-1.262,0-2.302-0.421-3.167-1.288
	c-0.862-0.853-1.285-1.886-1.27-3.157l-0.015-3.438c-0.009-1.286,0.334-2.333,1.023-3.206c0.667-0.835,1.584-1.228,2.815-1.228
	h10.725c1.254,0,2.284,0.412,3.142,1.275c0.863,0.866,1.284,1.904,1.284,3.166l0.009,1.361h-4.839l-0.006-0.64
	c0.012-0.373-0.129-0.603-0.256-0.729c-0.127-0.129-0.35-0.287-0.721-0.287h-7.344c-0.587,0-0.983,0.381-1.007,1.001v2.474
	c0.024,0.586,0.429,0.978,1.007,0.978h8.725c1.262,0,2.292,0.419,3.165,1.283c0.865,0.863,1.278,1.886,1.269,3.156L192.461,156.065z
	"/>
<path fill="#0082FF" d="M228.533,146.998c-0.747-0.754-1.633-1.118-2.705-1.118h-8.694c-1.022,0-1.736,0.33-2.182,1.022
	c-0.483,0.754-0.728,1.698-0.721,2.801l-0.024,6.979c0.008,1.072,0.38,1.958,1.125,2.714c0.754,0.754,1.633,1.118,2.712,1.118h8.686
	c1.024,0,1.737-0.33,2.183-1.024c0.491-0.753,0.738-1.696,0.721-2.8l0.024-6.979C229.652,148.643,229.278,147.753,228.533,146.998
	 M223.893,157.095h-3.847c-0.372,0-0.684-0.111-0.904-0.341c-0.22-0.22-0.332-0.523-0.325-0.903l-0.018-5.307
	c0-0.77,0.475-1.249,1.246-1.249h3.84c0.373,0,0.681,0.113,0.904,0.343c0.22,0.223,0.332,0.524,0.332,0.906l0.009,5.307
	C225.131,156.617,224.653,157.095,223.893,157.095"/>
<path fill="#0082FF" d="M279.253,148.021l-0.006,12.492h-4.521l-0.016-10.206c0.006-0.13-0.024-0.255-0.081-0.399
	c-0.166-0.39-0.507-0.613-0.929-0.613h-4.886c-0.785,0-1.268,0.479-1.274,1.239l0.006,9.979h-4.434l-0.015-10.178
	c0.009-0.142-0.016-0.275-0.082-0.428c-0.157-0.382-0.504-0.613-0.924-0.613h-4.887c-0.78,0-1.27,0.479-1.27,1.239v9.979h-4.521
	l0.006-14.634h4.521l-0.005,1.554l-0.008,1.896l1.094-1.545c0.403-0.58,0.93-1.048,1.555-1.388c0.628-0.345,1.323-0.517,2.078-0.517
	h4.151c0.45,0,0.831,0.118,1.172,0.364c0.359,0.255,0.61,0.57,0.776,0.968l0.365,0.854l0.628-0.688
	c0.903-1.008,1.994-1.499,3.323-1.499h6.052c0.968,0,1.596,0.41,1.967,1.301C279.199,147.434,279.253,147.722,279.253,148.021"/>
<path fill="#0082FF" d="M315.237,146.998c-0.741-0.754-1.633-1.118-2.702-1.118h-8.693c-1.024,0-1.74,0.33-2.184,1.022
	c-0.482,0.754-0.727,1.698-0.722,2.801l-0.016,6.979c0.011,1.072,0.372,1.958,1.122,2.714c0.752,0.754,1.63,1.118,2.711,1.118h8.691
	c1.016,0,1.73-0.33,2.173-1.024c0.493-0.753,0.741-1.696,0.731-2.8l0.016-6.979C316.359,148.643,315.984,147.753,315.237,146.998
	 M310.602,157.095h-3.842c-0.381,0-0.682-0.111-0.913-0.341c-0.222-0.22-0.331-0.523-0.325-0.903l-0.014-5.307
	c0-0.77,0.476-1.249,1.243-1.249h3.842c0.372,0,0.679,0.113,0.903,0.343c0.223,0.223,0.332,0.524,0.332,0.906l0.01,5.307
	C311.838,156.617,311.36,157.095,310.602,157.095"/>
<path fill="#0082FF" d="M352.534,156.403c0,1.214-0.355,2.184-1.064,2.97c-0.688,0.768-1.563,1.141-2.643,1.141h-6.937
	c-1.209,0-2.203-0.422-3.057-1.267c-0.759-0.772-1.174-1.654-1.254-2.707h4.17c0.053,0.206,0.154,0.381,0.287,0.523
	c0.225,0.221,0.533,0.34,0.907,0.34h4.798c0.855,0,1.387-0.562,1.395-1.461c0-0.458-0.136-0.822-0.389-1.075
	c-0.244-0.247-0.59-0.377-1.006-0.377h-5.862c-1.262,0-2.269-0.411-3.091-1.268c-0.828-0.848-1.223-1.911-1.218-3.235
	c0-1.212,0.35-2.181,1.062-2.964c0.702-0.771,1.564-1.144,2.656-1.144h6.564c1.193,0,2.197,0.421,3.053,1.268
	c0.765,0.771,1.175,1.644,1.253,2.674h-4.245c-0.047-0.19-0.14-0.356-0.275-0.492c-0.227-0.223-0.533-0.341-0.904-0.341h-3.408
	c-0.432,0-0.771,0.128-1.017,0.381c-0.247,0.251-0.376,0.61-0.368,1.047c0,0.465,0.127,0.825,0.383,1.078
	c0.252,0.258,0.586,0.375,1.006,0.375h4.889c1.249,0,2.264,0.417,3.092,1.277C352.135,154.011,352.54,155.082,352.534,156.403"/>
<path fill="#0082FF" d="M434.384,157.095l-0.008,3.419h-3.704c-0.602,0-1.095-0.206-1.515-0.625
	c-0.42-0.424-0.624-0.914-0.619-1.516l0.008-18.782h4.522l-0.019,16.695c0.03,0.556,0.43,0.809,0.796,0.809H434.384z"/>
<path fill="#0082FF" d="M455.204,145.88l-0.005,14.634h4.518l0.007-14.634H455.204z M459.707,137.592h-4.518l0.015,3.845h4.52
	L459.707,137.592z"/>
<path fill="#0082FF" d="M404.29,151.813h-0.012v-1.648c0-1.43-0.574-2.501-1.73-3.214c-1.153-0.714-3.097-1.07-5.829-1.07
	c-2.73,0-4.634,0.356-5.705,1.07c-1.073,0.713-1.608,1.751-1.608,3.11v0.431h5.303v-0.641c0-0.696,0.14-1.193,0.422-1.485
	c0.284-0.295,0.849-0.437,1.69-0.437c0.844,0,1.755-0.089,2.668,0.455c0.396,0.365,0.334,1.253,0.334,2.028l0.027,2.037
	l-0.663-0.128c-1.448-0.271-2.77-0.482-3.927-0.616c-1.162-0.141-2-0.214-2.511-0.214c-1.44,0-2.4,0.214-2.86,0.633
	c-0.51,0.461-0.753,1.039-0.746,1.708v4.582c-0.007,0.663,0.341,1.206,1.07,1.667c0.732,0.457,1.536,0.682,2.49,0.682
	c0.551,0,1.461-0.083,2.704-0.24c1.245-0.159,2.499-0.39,3.739-0.681l0.791-0.192l0.016,1.113l1.777-0.154h2.555L404.29,151.813z
	 M399.475,158.354c-0.076,0.01-0.24,0.033-0.839,0.076l-0.84,0.057l-0.579,0.044c-0.518,0.04-1.006,0.074-1.453,0.097
	c-0.449,0.024-0.743,0.039-0.871,0.039c-0.383,0-0.682-0.073-0.904-0.208c-0.225-0.141-0.341-0.323-0.332-0.555l-0.009-3.555
	c0-0.47,0.493-0.762,1.269-0.762c0.104,0,0.319,0.004,0.945,0.037c0.451,0.028,0.927,0.059,1.418,0.101
	c0.446,0.029,0.859,0.061,1.236,0.09l0.131,0.009c0.433,0.034,0.713,0.058,0.824,0.067l0.398,0.05l0.055,4.354L399.475,158.354z"/>
<path fill="#0082FF" d="M498.811,151.813h-0.013v-1.648c0-1.43-0.574-2.501-1.73-3.214c-1.154-0.714-3.096-1.07-5.829-1.07
	c-2.73,0-4.635,0.356-5.705,1.07c-1.074,0.713-1.609,1.751-1.609,3.11v0.431h5.303v-0.641c0-0.696,0.141-1.193,0.423-1.485
	c0.28-0.295,0.849-0.437,1.69-0.437c0.843,0,1.755-0.089,2.669,0.455c0.395,0.365,0.335,1.253,0.335,2.028l0.025,2.037l-0.663-0.128
	c-1.448-0.271-2.77-0.482-3.928-0.616c-1.159-0.141-2-0.214-2.509-0.214c-1.441,0-2.401,0.214-2.86,0.633
	c-0.51,0.461-0.756,1.039-0.747,1.708v4.582c-0.009,0.663,0.342,1.206,1.07,1.667c0.732,0.457,1.537,0.682,2.49,0.682
	c0.547,0,1.461-0.083,2.704-0.24c1.245-0.159,2.498-0.39,3.736-0.681l0.794-0.192l0.016,1.113l1.778-0.154h2.553L498.811,151.813z
	 M493.995,158.354c-0.078,0.01-0.241,0.033-0.839,0.076l-0.841,0.057l-0.578,0.044c-0.518,0.04-1.01,0.074-1.454,0.097
	c-0.449,0.024-0.742,0.039-0.87,0.039c-0.384,0-0.683-0.073-0.905-0.208c-0.225-0.141-0.342-0.323-0.332-0.555l-0.01-3.555
	c0-0.47,0.491-0.762,1.269-0.762c0.106,0,0.319,0.004,0.944,0.037c0.453,0.028,0.928,0.059,1.42,0.101
	c0.445,0.029,0.859,0.061,1.238,0.09l0.128,0.009c0.435,0.034,0.713,0.058,0.824,0.067l0.399,0.05l0.054,4.354L493.995,158.354z"/>
<path fill="#0082FF" d="M531.424,139.591l0.01,5.695v0.594h-7.664c-1.048,0-1.814,0.35-2.354,1.063
	c-0.587,0.752-0.869,1.657-0.859,2.76l-0.01,7.226c-0.002,1.079,0.362,1.961,1.113,2.714c0.762,0.752,1.651,1.116,2.725,1.116
	c0.504,0,1.36-0.086,2.552-0.245c1.229-0.167,2.5-0.356,3.782-0.578l0.699-0.119v0.697h4.522l0.016-20.923H531.424z
	 M531.417,156.731l-0.468,0.104c-0.078,0.014-0.245,0.048-0.844,0.116l-0.106,0.018l-1.293,0.149c-0.518,0.065-1,0.117-1.462,0.157
	c-0.454,0.041-0.762,0.066-0.909,0.066c-0.398,0-0.716-0.122-0.937-0.35c-0.161-0.151-0.335-0.432-0.335-0.899v-5.56
	c0.005-0.76,0.482-1.239,1.247-1.239h5.106V156.731z"/>
<path fill="#0082FF" d="M572.24,146.998c-0.746-0.754-1.636-1.118-2.705-1.118h-8.697c-1.019,0-1.731,0.33-2.177,1.022
	c-0.486,0.754-0.73,1.698-0.725,2.801l-0.015,6.979c0.009,1.072,0.372,1.958,1.129,2.714c0.742,0.754,1.626,1.118,2.703,1.118h8.697
	c1.02,0,1.724-0.33,2.168-1.024c0.492-0.753,0.739-1.696,0.73-2.8l0.018-6.979C573.358,148.643,572.992,147.753,572.24,146.998
	 M567.6,157.095h-3.839c-0.377,0-0.68-0.111-0.907-0.341c-0.221-0.22-0.333-0.523-0.333-0.903l-0.014-5.307
	c0-0.77,0.476-1.249,1.248-1.249h3.837c0.372,0,0.685,0.113,0.905,0.343c0.219,0.223,0.332,0.524,0.332,0.906l0.008,5.307
	C568.837,156.617,568.361,157.095,567.6,157.095"/>
<path fill="#0082FF" d="M609.53,156.403c0,1.214-0.347,2.184-1.052,2.97c-0.695,0.768-1.572,1.141-2.651,1.141h-6.937
	c-1.208,0-2.201-0.422-3.054-1.267c-0.762-0.772-1.175-1.654-1.258-2.707h4.171c0.053,0.206,0.154,0.381,0.287,0.523
	c0.226,0.221,0.532,0.34,0.915,0.34h4.788c0.857,0,1.392-0.562,1.398-1.461c0-0.458-0.125-0.822-0.391-1.075
	c-0.244-0.247-0.588-0.377-0.999-0.377h-5.869c-1.263,0-2.268-0.411-3.084-1.268c-0.827-0.848-1.229-1.911-1.222-3.235
	c0-1.212,0.35-2.181,1.063-2.964c0.694-0.771,1.562-1.144,2.648-1.144h6.567c1.198,0,2.197,0.421,3.054,1.268
	c0.764,0.771,1.178,1.644,1.253,2.674h-4.241c-0.052-0.19-0.146-0.356-0.279-0.492c-0.221-0.223-0.53-0.341-0.905-0.341h-3.409
	c-0.425,0-0.77,0.128-1.014,0.381c-0.245,0.251-0.375,0.61-0.367,1.047c0,0.465,0.127,0.825,0.39,1.078
	c0.241,0.258,0.579,0.375,0.997,0.375h4.888c1.254,0,2.27,0.417,3.095,1.277C609.144,154.011,609.539,155.082,609.53,156.403"/>
</svg>
